<?xml version="1.0" encoding="UTF-8" standalone="no"?>
<!-- Created with Inkscape (http://www.inkscape.org/) -->

<svg
   xmlns:dc="http://purl.org/dc/elements/1.1/"
   xmlns:cc="http://creativecommons.org/ns#"
   xmlns:rdf="http://www.w3.org/1999/02/22-rdf-syntax-ns#"
   xmlns:svg="http://www.w3.org/2000/svg"
   xmlns="http://www.w3.org/2000/svg"
   xmlns:sodipodi="http://sodipodi.sourceforge.net/DTD/sodipodi-0.dtd"
   xmlns:inkscape="http://www.inkscape.org/namespaces/inkscape"
   width="1488.1899"
   height="1052.3622"
   id="svg2"
   version="1.1"
   inkscape:version="0.48.2 r9819"
   sodipodi:docname="Documento nuevo 1">
  <defs
     id="defs4" />
  <sodipodi:namedview
     id="base"
     pagecolor="#ffffff"
     bordercolor="#666666"
     borderopacity="1.0"
     inkscape:pageopacity="0.0"
     inkscape:pageshadow="2"
     inkscape:zoom="0.35"
     inkscape:cx="768.66482"
     inkscape:cy="562.13608"
     inkscape:document-units="px"
     inkscape:current-layer="layer13"
     showgrid="false"
     width="1488.19px"
     inkscape:window-width="1304"
     inkscape:window-height="746"
     inkscape:window-x="-8"
     inkscape:window-y="-8"
     inkscape:window-maximized="1" />
  <metadata
     id="metadata7">
    <rdf:RDF>
      <cc:Work
         rdf:about="">
        <dc:format>image/svg+xml</dc:format>
        <dc:type
           rdf:resource="http://purl.org/dc/dcmitype/StillImage" />
        <dc:title></dc:title>
      </cc:Work>
    </rdf:RDF>
  </metadata>
  <g
     inkscape:groupmode="layer"
     id="layer12"
     inkscape:label="background">
    <rect
       style="fill:#c837ab;fill-opacity:1;fill-rule:nonzero;stroke:#000000;stroke-width:0;stroke-linecap:round;stroke-linejoin:round;stroke-miterlimit:4;stroke-opacity:1;stroke-dasharray:none"
       id="rect4049"
       width="905.09668"
       height="939.44189"
       x="250.51784"
       y="42.209637"
       ry="100" />
  </g>
  <g
     inkscape:groupmode="layer"
     id="layer11"
     inkscape:label="stars"
     transform="translate(0,308.26774)">
    <path
       sodipodi:type="star"
       style="fill:#ffd42a;fill-opacity:1;fill-rule:nonzero;stroke:#000000;stroke-width:0;stroke-linecap:round;stroke-linejoin:round;stroke-miterlimit:4;stroke-opacity:1;stroke-dasharray:none"
       id="path3945"
       sodipodi:sides="5"
       sodipodi:cx="638.41638"
       sodipodi:cy="291.54614"
       sodipodi:r1="28.926367"
       sodipodi:r2="14.463184"
       sodipodi:arg1="1.1383886"
       sodipodi:arg2="1.7667071"
       inkscape:flatsided="false"
       inkscape:rounded="0"
       inkscape:randomized="0"
       d="m 650.53821,317.81011 -14.93723,-12.07745 -18.41726,5.45804 6.87048,-17.93829 -10.88216,-15.82923 19.18343,0.99098 11.69172,-15.24105 4.98552,18.55075 18.10804,6.40975 -16.1022,10.47401 z"
       inkscape:transform-center-x="-1.7400145"
       inkscape:transform-center-y="-1.054531"
       transform="translate(127.27923,38.385796)" />
    <path
       sodipodi:type="star"
       style="fill:#ffe680;fill-opacity:1;fill-rule:nonzero;stroke:#000000;stroke-width:0;stroke-linecap:round;stroke-linejoin:round;stroke-miterlimit:4;stroke-opacity:1;stroke-dasharray:none"
       id="path3945-8"
       sodipodi:sides="5"
       sodipodi:cx="638.41638"
       sodipodi:cy="291.54614"
       sodipodi:r1="28.926367"
       sodipodi:r2="14.463184"
       sodipodi:arg1="1.1383886"
       sodipodi:arg2="1.7667071"
       inkscape:flatsided="false"
       inkscape:rounded="0"
       inkscape:randomized="0"
       d="m 650.53821,317.81011 -14.93723,-12.07745 -18.41726,5.45804 6.87048,-17.93829 -10.88216,-15.82923 19.18343,0.99098 11.69172,-15.24105 4.98552,18.55075 18.10804,6.40975 -16.1022,10.47401 z"
       inkscape:transform-center-x="2.2799732"
       inkscape:transform-center-y="0.50247527"
       transform="matrix(0.84388496,-0.53652416,0.53652416,0.84388496,119.29171,332.52654)" />
    <path
       sodipodi:type="star"
       style="fill:#ffcc00;fill-opacity:1;fill-rule:nonzero;stroke:#000000;stroke-width:0;stroke-linecap:round;stroke-linejoin:round;stroke-miterlimit:4;stroke-opacity:1;stroke-dasharray:none"
       id="path3945-8-8"
       sodipodi:sides="5"
       sodipodi:cx="638.41638"
       sodipodi:cy="291.54614"
       sodipodi:r1="28.926367"
       sodipodi:r2="14.463184"
       sodipodi:arg1="1.1383886"
       sodipodi:arg2="1.7667071"
       inkscape:flatsided="false"
       inkscape:rounded="0"
       inkscape:randomized="0"
       d="m 650.53821,317.81011 -14.93723,-12.07745 -18.41726,5.45804 6.87048,-17.93829 -10.88216,-15.82923 19.18343,0.99098 11.69172,-15.24105 4.98552,18.55075 18.10804,6.40975 -16.1022,10.47401 z"
       inkscape:transform-center-x="-94.694671"
       inkscape:transform-center-y="762.15749"
       transform="matrix(0.84388496,-0.53652416,0.53652416,0.84388496,34.418275,339.05075)" />
    <path
       sodipodi:type="star"
       style="fill:#ffe680;fill-opacity:1;fill-rule:nonzero;stroke:#000000;stroke-width:0;stroke-linecap:round;stroke-linejoin:round;stroke-miterlimit:4;stroke-opacity:1;stroke-dasharray:none"
       id="path3945-5"
       sodipodi:sides="5"
       sodipodi:cx="638.41638"
       sodipodi:cy="291.54614"
       sodipodi:r1="28.926367"
       sodipodi:r2="14.463184"
       sodipodi:arg1="1.1383886"
       sodipodi:arg2="1.7667071"
       inkscape:flatsided="false"
       inkscape:rounded="0"
       inkscape:randomized="0"
       d="m 650.53821,317.81011 -14.93723,-12.07745 -18.41726,5.45804 6.87048,-17.93829 -10.88216,-15.82923 19.18343,0.99098 11.69172,-15.24105 4.98552,18.55075 18.10804,6.40975 -16.1022,10.47401 z"
       inkscape:transform-center-x="-1.7400145"
       inkscape:transform-center-y="-1.054531"
       transform="translate(54.828555,63.683996)" />
  </g>
  <g
     inkscape:groupmode="layer"
     id="layer2"
     inkscape:label="hand-back"
     style="display:inline"
     transform="translate(0,308.26774)" />
  <g
     inkscape:label="hand"
     inkscape:groupmode="layer"
     id="layer1"
     transform="translate(0,4.4409757e-5)" />
  <g
     inkscape:groupmode="layer"
     id="layer3"
     inkscape:label="hand-front"
     transform="translate(0,308.26774)">
    <g
       id="g3899"
       transform="translate(101.01526,-4.3331468e-6)">
      <path
         sodipodi:nodetypes="cccccccccccccccccccccccccccccccc"
         inkscape:connector-curvature="0"
         id="path2985-1"
         d="m 823.01725,653.22572 c -3.79799,-30.26802 -9.45463,-55.65707 -28.28427,-46.46702 -21.89497,-4.53978 -36.93694,-25.60039 -68.69037,-34.34518 -23.23668,-42.11628 -25.38632,-34.04147 -46.46702,-121.21831 -14.26426,-69.39601 26.04442,-46.88694 26.26396,-27.27412 23.23044,59.92958 5.13006,11.20838 40.52866,95.47428 28.63619,8.76681 31.09818,0.1657 33.87601,-11.75417 0.33555,-22.05792 7.66145,-10.21137 -21.87673,-106.95362 -31.74049,-48.18678 -36.87373,-72.9046 -44.44671,-80.8122 -5.47721,-28.61959 4.46637,-35.5342 28.28427,-24.24366 24.63073,27.35279 37.13637,62.78897 54.54823,94.95434 4.37733,12.80238 4.71404,4.37616 9.09137,33.33503 5.9983,5.58721 13.52521,19.74583 13.13198,1.01016 0.64908,-8.85332 1.55579,-4.69434 -5.05076,-31.31473 0,0 -16.52492,-55.33709 -53.46629,-112.79046 -7.16072,-30.53844 8.87185,-28.84924 26.19218,-27.62075 43.98975,65.30463 40.86547,81.35367 58.58885,119.198 8.75019,22.31088 6.72038,23.1598 10.10152,49.49748 4.04061,3.53974 11.11168,8.08078 15.15229,-3.03046 2.57648,-31.39238 -6.05198,-35.14725 -9.09137,-60.60915 -13.50886,-36.94301 -26.25661,-62.22969 -32.54897,-85.56711 9.16199,-9.83698 2.31151,-31.4578 36.58958,-7.36693 26.20095,36.77244 23.44415,54.23972 34.34518,80.81221 18.92416,94.77178 6.41067,44.8372 10.10153,76.77159 11.73886,5.98575 8.33097,-4.93954 10.10152,-15.15229 -2.52265,-29.936 -2.38973,-49.12228 -10.10152,-59.599 3.24984,-18.44348 12.02948,-17.53463 28.28427,-4.04061 14.31345,29.12733 12.34667,51.27742 18.18275,76.77159 6.94777,44.01934 1.26359,48.56381 -2.02031,60.60916 -54.24204,151.04446 -23.62194,58.38666 -24.24366,105.05586 3.94532,28.93069 13.87909,28.92873 6.56599,46.46702 z"
         style="fill:#ffccaa;stroke:#000000;stroke-width:0;stroke-linecap:butt;stroke-linejoin:miter;stroke-miterlimit:4;stroke-opacity:1;stroke-dasharray:none;display:inline" />
      <path
         sodipodi:nodetypes="cccccccccccccccccccccccccccccccc"
         inkscape:connector-curvature="0"
         id="path2985"
         d="m 832.3657,959.42815 c -3.79799,-30.26802 -9.45463,-55.65707 -28.28427,-46.46702 -21.89497,-4.53978 -36.93694,-25.60039 -68.69037,-34.34518 -23.23668,-42.11628 -25.38632,-34.04147 -46.46702,-121.21831 -14.26426,-69.39601 26.04442,-46.88694 26.26396,-27.27412 23.23044,59.92958 5.13006,11.20838 40.52866,95.47428 28.63619,8.76681 31.09818,0.1657 33.87601,-11.75417 0.33555,-22.05792 7.66145,-10.21137 -21.87673,-106.95362 -31.74049,-48.18678 -36.87373,-72.9046 -44.44671,-80.8122 -5.47721,-28.61959 4.46637,-35.5342 28.28427,-24.24366 24.63073,27.35279 37.13637,62.78897 54.54823,94.95434 4.37733,12.80238 4.71404,4.37616 9.09137,33.33503 5.9983,5.58721 13.52521,19.74583 13.13198,1.01016 0.64908,-8.85332 1.55579,-4.69434 -5.05076,-31.31473 0,0 -16.52492,-55.33709 -53.46629,-112.79046 -7.16072,-30.53844 8.87185,-28.84924 26.19218,-27.62075 43.98975,65.30463 40.86547,81.35367 58.58885,119.198 8.75019,22.31088 6.72038,23.1598 10.10152,49.49748 4.04061,3.53974 11.11168,8.08078 15.15229,-3.03046 2.57648,-31.39238 -6.05198,-35.14725 -9.09137,-60.60915 -13.50886,-36.94301 -26.25661,-62.22969 -32.54897,-85.56711 9.16199,-9.83698 2.31151,-31.4578 36.58958,-7.36693 26.20095,36.77244 23.44415,54.23972 34.34518,80.81221 18.92416,94.77178 6.41067,44.8372 10.10153,76.77159 11.73886,5.98575 8.33097,-4.93954 10.10152,-15.15229 -2.52265,-29.936 -2.38973,-49.12228 -10.10152,-59.599 3.24984,-18.44348 12.02948,-17.53463 28.28427,-4.04061 14.31345,29.12733 12.34667,51.27742 18.18275,76.77159 6.94777,44.01934 1.26359,48.56381 -2.02031,60.60916 -54.24204,151.04446 -23.62194,58.38666 -24.24366,105.05586 3.94532,28.93069 13.87909,28.92873 6.56599,46.46702 z"
         style="fill:#ffe6d5;stroke:#000000;stroke-width:0;stroke-linecap:butt;stroke-linejoin:miter;stroke-miterlimit:4;stroke-opacity:1;stroke-dasharray:none"
         transform="translate(0,-308.2677)" />
      <path
         sodipodi:nodetypes="ccccccccccccccc"
         inkscape:connector-curvature="0"
         id="path2985-7"
         d="m 837.85503,641.89664 c 10.14017,-26.17019 58.07286,-83.78586 45.7222,-223.2134 2.48124,-29.89989 -5.82828,-33.47625 -8.75532,-57.7276 -13.00951,-35.18662 -25.28604,-59.2711 -31.34581,-81.49898 8.82332,-9.3693 2.22607,-29.9622 35.23706,-7.01669 25.23245,35.02416 22.57755,51.66099 33.07563,76.97015 18.22464,90.26603 6.1737,42.7055 9.72813,73.12163 11.30494,5.70117 8.02302,-4.7047 9.72812,-14.43191 -2.4294,-28.51274 -2.30139,-46.78685 -9.72812,-56.76547 3.12971,-17.56662 11.58482,-16.70098 27.23875,-3.84851 13.78436,27.74252 11.89028,48.83953 17.51064,73.12163 6.69094,41.92652 1.21688,46.25493 -1.94563,57.72761 -52.23701,143.86333 -22.74877,55.61078 -23.34751,100.06118 3.79949,27.55522 13.36606,27.55336 6.32328,44.25782 z"
         style="opacity:0.38969158;fill:#ffffff;stroke:#000000;stroke-width:0;stroke-linecap:butt;stroke-linejoin:miter;stroke-miterlimit:4;stroke-opacity:1;stroke-dasharray:none" />
    </g>
    <path
       sodipodi:type="star"
       style="fill:#ffeeaa;fill-opacity:1;fill-rule:nonzero;stroke:#000000;stroke-width:0;stroke-linecap:round;stroke-linejoin:round;stroke-miterlimit:4;stroke-opacity:1;stroke-dasharray:none"
       id="path3945-8-8-5"
       sodipodi:sides="5"
       sodipodi:cx="638.41638"
       sodipodi:cy="291.54614"
       sodipodi:r1="28.926367"
       sodipodi:r2="14.463184"
       sodipodi:arg1="1.1383886"
       sodipodi:arg2="1.7667071"
       inkscape:flatsided="false"
       inkscape:rounded="0"
       inkscape:randomized="0"
       d="m 650.53821,317.81011 -14.93723,-12.07745 -18.41726,5.45804 6.87048,-17.93829 -10.88216,-15.82923 19.18343,0.99098 11.69172,-15.24105 4.98552,18.55075 18.10804,6.40975 -16.1022,10.47401 z"
       inkscape:transform-center-x="-73.187335"
       inkscape:transform-center-y="764.3156"
       transform="matrix(0.85851164,-0.51279407,0.51279407,0.85851164,20.832985,481.64789)" />
  </g>
  <g
     inkscape:groupmode="layer"
     id="layer10"
     inkscape:label="wires"
     transform="translate(0,308.26774)">
    <path
       style="fill:#917c6f;stroke:#000000;stroke-width:0.60000002;stroke-linecap:butt;stroke-linejoin:miter;stroke-miterlimit:4;stroke-opacity:1;stroke-dasharray:none"
       d="M 438.40621,-137.76869 334.36049,50.119684 z"
       id="path3928"
       inkscape:connector-curvature="0" />
    <path
       style="fill:none;stroke:#000000;stroke-width:1px;stroke-linecap:butt;stroke-linejoin:miter;stroke-opacity:1"
       d="M 449.51788,-113.52503 379.81736,71.332884 z"
       id="path3930"
       inkscape:connector-curvature="0" />
    <path
       style="fill:none;stroke:#000000;stroke-width:1px;stroke-linecap:butt;stroke-linejoin:miter;stroke-opacity:1"
       d="M 508.10673,-141.8093 527.29963,7.6932743 z"
       id="path3932"
       inkscape:connector-curvature="0" />
    <path
       style="fill:none;stroke:#000000;stroke-width:1px;stroke-linecap:butt;stroke-linejoin:miter;stroke-opacity:1"
       d="m 554.57375,-150.90067 7.07107,145.4619643 z"
       id="path3934"
       inkscape:connector-curvature="0" />
    <path
       style="fill:none;stroke:#000000;stroke-width:1px;stroke-linecap:butt;stroke-linejoin:miter;stroke-opacity:1"
       d="M 588.91893,-125.64686 676.80221,40.018154 z"
       id="path3936"
       inkscape:connector-curvature="0" />
    <path
       style="fill:none;stroke:#000000;stroke-width:1px;stroke-linecap:butt;stroke-linejoin:miter;stroke-opacity:1"
       d="M 603.06107,-150.90067 763.67532,36.987704 z"
       id="path3938"
       inkscape:connector-curvature="0" />
    <path
       style="fill:none;stroke:#000000;stroke-width:1px;stroke-linecap:butt;stroke-linejoin:miter;stroke-opacity:1"
       d="m 442.96887,-206.32182 42.85715,617.14285 z"
       id="path3940"
       inkscape:connector-curvature="0" />
    <path
       style="fill:none;stroke:#000000;stroke-width:1px;stroke-linecap:butt;stroke-linejoin:miter;stroke-opacity:1"
       d="m 600.11173,-189.17897 47.14286,585.71429 z"
       id="path3942"
       inkscape:connector-curvature="0" />
  </g>
  <g
     inkscape:groupmode="layer"
     id="layer4"
     inkscape:label="wood"
     transform="translate(0,308.26774)">
    <g
       id="g3920"
       transform="translate(115.15739,-234.35539)">
      <path
         inkscape:connector-curvature="0"
         id="path3807"
         d="M 322.85714,31.237339 474.28571,109.80877 490,84.094482 337.14286,16.951625 z"
         style="fill:#deaa87;stroke:#000000;stroke-width:0;stroke-linecap:butt;stroke-linejoin:miter;stroke-miterlimit:4;stroke-opacity:1;stroke-dasharray:none" />
      <g
         transform="translate(-6.0609157,12.121831)"
         id="g3917">
        <path
           style="fill:#deaa87;stroke:#000000;stroke-width:0;stroke-linecap:butt;stroke-linejoin:miter;stroke-miterlimit:4;stroke-opacity:1;stroke-dasharray:none"
           d="M 492.93764,32.298254 341.50907,110.86969 325.79478,85.155399 478.65192,18.01254 z"
           id="path3807-0"
           inkscape:connector-curvature="0"
           inkscape:transform-center-x="26.263966"
           inkscape:transform-center-y="18.182746" />
      </g>
    </g>
  </g>
  <g
     inkscape:groupmode="layer"
     id="layer6"
     inkscape:label="puppet-head"
     transform="translate(0,308.26774)" />
  <g
     inkscape:groupmode="layer"
     id="layer9"
     inkscape:label="puppet-legs"
     transform="translate(0,308.26774)" />
  <g
     inkscape:groupmode="layer"
     id="layer7"
     inkscape:label="puppet-hair"
     transform="translate(0,308.26774)" />
  <g
     inkscape:groupmode="layer"
     id="layer8"
     inkscape:label="puppet-hands"
     transform="translate(0,308.26774)" />
  <g
     inkscape:groupmode="layer"
     id="layer5"
     inkscape:label="puppet-body"
     transform="translate(0,308.26774)">
    <g
       id="g3908"
       transform="translate(258.59905,-200.0102)">
      <path
         sodipodi:nodetypes="scsccccccccccccccccccccccccccccccccccccs"
         inkscape:connector-curvature="0"
         id="path3862"
         d="m 306.03125,155.15625 c -3.31884,0.0915 -6.71148,0.42467 -10.125,0.53125 -5.02886,0.56607 -16.32338,0.57814 -21.3125,0.5625 -7.2918,-0.0228 -10.57651,6.00916 -19.5,29.875 1.01291,19.20109 9.25628,27.68567 17.15625,40.375 6.01934,7.87229 11.85271,13.07386 17.71875,15.34375 -0.42346,0.64859 -0.95069,1.28892 -1.59375,1.9375 -6.07647,10.53129 -16.59953,3.58337 -25.21875,4.1875 l 3.25,7.78125 -8.8125,0.4375 c -16.77004,-5.73653 -13.78702,-15.70587 -64.65387,-14.13594 -32.67831,10.02023 -54.30414,15.29009 -79.81488,22.22969 -11.77578,-14.61463 -26.61782,-21.05254 -46.463996,-14.1461 10.630704,5.33621 24.157746,4.87974 27.276496,25.23985 l -15.15625,-3.03125 c 6.112103,4.38542 5.857582,8.77083 24.25,13.15625 l 15.15625,-15.15625 68.6875,-12.125 68.6875,10.09375 15.6875,-0.875 4.78125,11.5 51.03125,-2.125 3.3125,-12.65625 16.09375,-0.90625 c 23.62285,-0.98545 48.60266,-1.29242 56.59375,-10.09375 47.14958,-1.52848 65.64411,4.75805 83.84375,11.125 l 16.15625,12.125 c 11.52882,-3.43217 10.83465,-15.01301 15.15625,-23.25 L 505.0625,262.25 c -0.56442,-14.03317 5.44526,-19.47194 10.1039,-28.28204 -7.40625,3.71746 -15.82265,-2.09667 -23.2289,19.18829 C 465.52704,242.27528 439.16035,231.13166 410.125,236 c -21.09097,-0.24513 -45.24261,5.63106 -71.71875,16.15625 l -4.96875,0.25 1.15625,-4.4375 c -9.67024,1.22528 -18.76142,1.30958 -24.1875,-5.75 -0.88671,-1.01814 -1.58204,-1.93085 -2.125,-2.78125 5.16548,-3.49024 11.17329,-9.80903 18.78125,-17.6875 1.54889,2.18618 9.24175,-35.38928 5.375,-48.21875 -7.15897,-16.72402 -16.44973,-18.64939 -26.40625,-18.375 z"
         style="fill:#f4e3d7;stroke:#000000;stroke-width:0;stroke-linecap:butt;stroke-linejoin:miter;stroke-miterlimit:4;stroke-opacity:1;stroke-dasharray:none" />
      <path
         sodipodi:nodetypes="ccccccccc"
         inkscape:connector-curvature="0"
         id="path3877"
         d="m 267.5928,395.23978 c -7.75099,23.50276 -26.11452,11.061 -12.07356,108.37273 -31.82901,33.53119 4.25021,56.43557 -12.49242,94.79922 -23.36941,-7.89536 -24.58536,12.99537 -35.23729,21.62502 50.56536,-6.35115 31.75473,9.34394 60.11947,-10.53313 -16.02533,-69.7443 31.46301,-86.93594 6.51876,-102.28156 30.86804,-32.64248 22.66491,-69.62074 25.25991,-105.4007 l -41.46642,-9.12863 z"
         style="fill:#f4e3d7;stroke:#000000;stroke-width:0;stroke-linecap:butt;stroke-linejoin:miter;stroke-miterlimit:4;stroke-opacity:1;stroke-dasharray:none" />
      <path
         sodipodi:nodetypes="ccccccccc"
         inkscape:connector-curvature="0"
         id="path3877-4"
         d="m 350.81087,379.42123 c 7.75099,23.50276 26.11452,11.061 12.07356,108.37273 31.82901,33.53119 -4.25021,56.43557 12.49242,94.79922 23.36941,-7.89536 24.58536,12.99537 35.23729,21.62502 -50.56536,-6.35115 -31.75473,9.34394 -60.11947,-10.53313 C 366.52,523.94077 319.03166,506.74913 343.97591,491.40351 313.10787,458.76103 321.311,421.78277 318.716,386.00281 l 41.46642,-9.12863 z"
         style="fill:#f4e3d7;stroke:#000000;stroke-width:0;stroke-linecap:butt;stroke-linejoin:miter;stroke-miterlimit:4;stroke-opacity:1;stroke-dasharray:none" />
      <path
         sodipodi:nodetypes="ccccccccccccccccccccc"
         inkscape:connector-curvature="0"
         id="path3868"
         d="m 292.18306,155.10401 c 13.78102,14.76335 38.73837,32.29662 39.50385,51.16202 7.82149,2.07527 16.6924,-7.35239 14.4341,-22.98583 17.33391,-7.9091 5.30061,-9.14491 53.17825,-17.05401 5.8259,2.22495 3.15018,1.68398 19.75193,7.41478 -5.97386,-13.78237 -5.74875,-20.19885 -6.83721,-28.17618 -2.30978,7.61198 -3.30856,17.35659 -11.39534,15.57105 -19.72798,4.87309 -42.41972,7.30214 -58.49608,1.48296 0.20477,-9.21852 -1.98649,-10.30931 -9.87596,-21.50288 -15.75073,-26.39907 -34.0063,-13.68174 -51.65888,-10.3807 -20.28506,-6.7167 -29.65603,4.3207 -37.98446,17.05401 -1.78135,4.95707 -6.10738,-9.30229 -2.27907,11.86365 -48.20402,0.49432 -35.53195,13.59377 -47.10074,14.08809 -3.13135,-5.8291 -9.14601,-9.85083 -18.23254,-13.34661 -0.3128,19.67444 2.28213,18.27236 3.79844,25.21027 6.03204,1.02486 9.6143,-3.96384 10.63565,-8.15627 36.35632,-2.82463 37.29046,8.14555 51.65888,8.89775 -15.0157,23.91597 5.04261,17.07434 14.43409,26.69323 5.0646,5.49053 10.1292,14.44218 15.19379,2.96591 -17.45317,-22.63133 -11.72733,-24.69596 -7.5969,-28.17618 33.65369,-17.52602 32.3688,-28.45934 28.8682,-32.62506 z"
         style="fill:#ff6600;stroke:#000000;stroke-width:0;stroke-linecap:butt;stroke-linejoin:miter;stroke-miterlimit:4;stroke-opacity:1;stroke-dasharray:none" />
      <path
         inkscape:connector-curvature="0"
         id="path3835"
         d="m 333.811,262.55291 -69.20368,0.98529 10.89651,54.74465 10.27111,21.89171 -0.93811,0 c -110.21913,-12.15593 -70.51876,97.52443 -105.74189,146.31417 137.70056,42.94369 189.16268,15.12359 248.81577,-5.97326 -37.83835,-46.7802 11.621,-166.21113 -113.53543,-140.34091 l -0.93811,0 11.04084,-23.86227 9.33299,-53.75938 z"
         style="fill:#aaeeff;stroke:#000000;stroke-width:0;stroke-linecap:butt;stroke-linejoin:miter;stroke-miterlimit:4;stroke-opacity:1;stroke-dasharray:none" />
      <path
         sodipodi:nodetypes="cccccc"
         inkscape:connector-curvature="0"
         id="path3840"
         d="m 283.01439,272.10171 c 2.19274,-3.90006 0.28836,-10.7993 -3.2231,-18.87495 -6.85753,-16.62342 -15.70462,-20.94842 -26.85907,-11.0104 -12.12399,6.80711 -14.1517,11.73402 -6.44618,19.92357 -4.50376,8.90967 -3.88631,16.95232 2.68591,18.87496 10.73777,-4.56114 21.68888,-8.49759 33.84244,-8.91318 z"
         style="fill:#e5ff80;stroke:#000000;stroke-width:0;stroke-linecap:butt;stroke-linejoin:miter;stroke-miterlimit:4;stroke-opacity:1;stroke-dasharray:none" />
      <path
         sodipodi:nodetypes="cccccc"
         inkscape:connector-curvature="0"
         id="path3840-9"
         d="m 318.80806,272.11998 c -2.19274,-3.90006 -0.28836,-10.7993 3.2231,-18.87495 6.85753,-16.62342 15.70462,-20.94842 26.85907,-11.0104 12.12399,6.80711 14.1517,11.73402 6.44618,19.92357 4.50376,8.90967 3.88631,16.95232 -2.68591,18.87496 -10.73777,-4.56114 -21.68888,-8.49759 -33.84244,-8.91318 z"
         style="fill:#e5ff80;stroke:#000000;stroke-width:0;stroke-linecap:butt;stroke-linejoin:miter;stroke-miterlimit:4;stroke-opacity:1;stroke-dasharray:none" />
    </g>
  </g>
  <g
     inkscape:groupmode="layer"
     id="layer13"
     inkscape:label="shine">
    <path
       style="opacity:0.18942731;fill:#ffffff;stroke:#000000;stroke-width:0;stroke-linecap:butt;stroke-linejoin:miter;stroke-miterlimit:4;stroke-opacity:1;stroke-dasharray:none"
       d="m 252.53814,312.93052 c 79.1218,233.8068 694.18048,287.76769 902.06616,14.14214 l 1.5284,-201.08829 c 0,10.91152 -7.2466,-76.011206 -91.847,-83.622188 l -722.34906,1.362684 c -77.35226,9.409192 -90.97706,76.419034 -92.42896,96.469564 z"
       id="path4054"
       inkscape:connector-curvature="0"
       sodipodi:nodetypes="ccccccc" />
  </g>
</svg>
